PathFileType	4	(X/Y/Z)	Kaydara																																																																																																																																																																																																																												
DataRate	CameraRate	NumFrames	NumMarkers	Units	OrigDataRate	OrigDataStartFrame	OrigNumFrames																																																																																																																																																																																																																								
60	60	4	74	mm	60	2419	226																																																																																																																																																																																																																								
Frame#	Time	N_lasi			N_rasi			N_rpsi			N_lpsi			N_fneck			N_bneck			N_fhead			N_rhead			N_lhead			N_rshld			N_relbtop			N_relbext			N_relblow			N_rwrext			N_rwrtop			N_rwrlow			N_lshld			N_lelblow			N_lelbtop			N_lwrext			N_lwrtop			N_lwrlow			N_rtopleg			N_ltopleg			N_rkneefr			N_rkneebk			N_rkneeis			N_lkneefr			N_lknssbk			N_lkneeis			N_rankfr			N_rankis			N_rankbk			N_lankfr			N_lankbk			N_lankis			D_lasi			D_rasi			D_lpsi			D_fneck			D_bneck			D_fhead			D_rhead			D_lhead			D_rshld			D_relbtop			D_relbext			D_relblow			D_rwrext			D_rwrtop			D_rwrlow			D_lshld			D_lelbext			D_lelblow			D_lelbtop			D_lwrext			D_lwrtop			D_lwrlow			D_rtopleg			D_ltopleg			D_rkneefr			D_rkneebk			D_rkneeis			D_lkneefr			D_lknssbk			D_lkneeis			D_rankfr			D_rankis			D_rankbk			D_lankfr			D_lankbk			D_lankis			D_rpsi			N_lelbext		
		X1	Y1	Z1	X2	Y2	Z2	X3	Y3	Z3	X4	Y4	Z4	X5	Y5	Z5	X6	Y6	Z6	X7	Y7	Z7	X8	Y8	Z8	X9	Y9	Z9	X10	Y10	Z10	X11	Y11	Z11	X12	Y12	Z12	X13	Y13	Z13	X14	Y14	Z14	X15	Y15	Z15	X16	Y16	Z16	X17	Y17	Z17	X18	Y18	Z18	X19	Y19	Z19	X20	Y20	Z20	X21	Y21	Z21	X22	Y22	Z22	X23	Y23	Z23	X24	Y24	Z24	X25	Y25	Z25	X26	Y26	Z26	X27	Y27	Z27	X28	Y28	Z28	X29	Y29	Z29	X30	Y30	Z30	X31	Y31	Z31	X32	Y32	Z32	X33	Y33	Z33	X34	Y34	Z34	X35	Y35	Z35	X36	Y36	Z36	X37	Y37	Z37	X38	Y38	Z38	X39	Y39	Z39	X40	Y40	Z40	X41	Y41	Z41	X42	Y42	Z42	X43	Y43	Z43	X44	Y44	Z44	X45	Y45	Z45	X46	Y46	Z46	X47	Y47	Z47	X48	Y48	Z48	X49	Y49	Z49	X50	Y50	Z50	X51	Y51	Z51	X52	Y52	Z52	X53	Y53	Z53	X54	Y54	Z54	X55	Y55	Z55	X56	Y56	Z56	X57	Y57	Z57	X58	Y58	Z58	X59	Y59	Z59	X60	Y60	Z60	X61	Y61	Z61	X62	Y62	Z62	X63	Y63	Z63	X64	Y64	Z64	X65	Y65	Z65	X66	Y66	Z66	X67	Y67	Z67	X68	Y68	Z68	X69	Y69	Z69	X70	Y70	Z70	X71	Y71	Z71	X72	Y72	Z72	X73	Y73	Z73	X74	Y74	Z74
																																																																																																																																																																																																																															
198	40.3	-521.25652	1259.07982	-86.43716	-512.79579	1266.90498	-317.95242	-243.17379	1222.13997	-366.539	-254.4232	1216.36513	-18.72019	-372.55119	1602.03674	-194.95085	-209.55119	1656.03674	-172.95085	-469.59885	1789.60922	-212.46727	-274.92704	1772.81525	-267.17215	-327.43145	1777.88071	-119.86904	-255.77953	1526.21292	-450.91957	-208.84907	1236.01021	-498.61813	-301.97269	1183.62701	-489.17107	-286.69508	1259.23203	-538.22506	-238.77516	942.15446	-624.79904	-281.14397	945.84435	-648.0294	-317.52439	941.83289	-616.80935	-260.99295	1527.23236	45.89485	-292.97052	1234.22951	108.72991	-221.43637	1214.45374	59.83368	-253.52682	912.23557	145.40328	-289.13464	915.49683	176.57522	-327.50343	914.31183	139.40027	-413.79436	1058.75824	-450.08202	-361.2244	1039.57832	40.53015	-414.39091	562.54738	-265.93233	-309.03093	580.0605	-334.68754	-357.12555	565.3223	-172.20501	-377.66891	540.26608	-109.53774	-253.61221	556.02356	-42.96976	-245.25139	548.21747	-192.55682	-291.63605	140.55564	-275.09396	-295.67816	155.50125	-195.41452	-213.92452	140.83585	-217.46824	-331.93363	193.54603	-121.90945	-261.04412	185.86355	-75.78232	-266.28872	194.16681	-164.75382	-469.79996	1036.74805	1744.20639	-434.18163	1062.36565	1460.40649	-277.36977	1139.0081	1749.25308	-422.09469	1566.96854	1638.79623	-284.06256	1594.31244	1656.84326	-469.72889	1770.97534	1646.5831	-302.09457	1736.71616	1577.12021	-319.47729	1729.62357	1728.77319	-313.88121	1571.74789	1499.96277	-266.57715	1449.95819	1225.12749	-341.39416	1463.70453	1214.74937	-253.59587	1535.08987	1221.78246	-218.15502	1474.62387	976.16814	-246.34073	1522.43652	964.24553	-290.15743	1490.13168	968.50777	-346.50063	1579.03732	1766.1908	-540.90519	1718.16544	1813.78433	-460.29011	1740.99136	1869.00894	-530.94585	1711.41357	1892.20322	-621.3448	1965.4924	1874.71725	-580.89603	1974.66782	1860.16357	-582.33135	1960.80688	1810.94055	-340.71831	1007.64801	1406.89926	-325.33752	1010.00175	1807.49832	-374.16313	455.9705	1449.3782	-274.97219	492.58499	1422.37289	-281.81725	460.12337	1542.44644	-354.6925	448.25443	1769.56909	-242.16846	486.33526	1786.9519	-312.71751	444.03568	1678.26004	-324.10385	131.5105	1417.24823	-295.22465	127.95552	1482.24884	-243.84415	129.14699	1417.83707	-323.11436	135.44121	1792.57126	-250.40342	125.01111	1807.12738	-293.37004	124.32391	1733.59497	-251.56576	1154.15016	1532.80777	-298.16515	1206.71883	9.57754
199	40.317	-521.46526	1259.38721	-87.21199	-511.85909	1267.32498	-318.76923	-237.74479	1219.49966	-371.97746	-253.03373	1215.01175	-19.40367	-371.4238	1601.94458	-194.98869	-208.4238	1655.94458	-172.98869	-468.78864	1789.4162	-212.40368	-273.9385	1772.9007	-267.69495	-326.21326	1778.19489	-120.20238	-255.65483	1524.58588	-450.33119	-210.30836	1230.57396	-489.76368	-304.08997	1177.45995	-479.29237	-289.47708	1251.77429	-527.87189	-243.26214	930.76111	-601.13636	-285.23014	934.14291	-625.15968	-322.41829	932.56073	-594.62799	-263.45331	1526.53763	46.84335	-294.62769	1228.41759	100.76891	-222.16944	1211.06285	52.47812	-254.32301	905.77042	124.43441	-290.8939	906.99234	155.0044	-328.25233	907.47917	116.24857	-413.04604	1058.67271	-450.47871	-361.50326	1039.36913	40.69623	-414.49146	562.56359	-265.98856	-309.08337	580.04311	-334.66961	-357.26978	565.36121	-172.22488	-377.80296	540.29339	-109.5253	-253.82607	556.04321	-42.92417	-245.39427	548.23433	-192.53389	-291.6452	140.54243	-275.06893	-295.71362	155.50166	-195.38967	-213.98506	140.83567	-217.40444	-331.9767	193.55061	-121.92343	-261.0849	185.88251	-75.77412	-266.33062	194.17858	-164.75672	-470.27676	1037.05734	1744.2247	-433.80836	1062.19887	1460.50385	-277.68946	1139.14406	1749.95483	-421.71684	1567.01202	1637.54425	-283.87432	1594.27261	1656.17798	-469.18251	1771.12549	1644.97467	-301.52035	1736.76727	1576.39587	-319.32812	1729.93362	1727.69669	-313.33908	1571.23169	1499.03168	-264.94913	1447.95807	1225.01976	-339.94423	1461.67145	1214.43199	-252.11519	1533.23013	1221.44897	-216.14723	1471.20499	975.88799	-244.27174	1519.15939	963.68217	-287.99524	1486.96869	968.14369	-349.50344	1581.52618	1762.33475	-541.3752	1718.77151	1810.9787	-460.96626	1741.52649	1867.08527	-531.97083	1712.14935	1889.44901	-621.77387	1966.30081	1870.63568	-581.72443	1975.40848	1856.60202	-582.77668	1961.34247	1807.28119	-340.06844	1007.56897	1407.43378	-325.93575	1010.23125	1808.11646	-374.04922	455.96321	1449.46274	-274.7974	492.54814	1422.72934	-281.95154	459.95491	1542.78229	-354.93462	448.24837	1769.72015	-242.52026	486.3726	1787.28485	-312.88372	444.0519	1678.54187	-324.06483	131.50606	1417.26639	-295.21511	127.98837	1482.4942	-243.77857	129.12824	1417.91916	-323.17829	135.42584	1792.59964	-250.49566	125.04539	1807.3172	-293.37749	124.37225	1733.63205	-251.40331	1154.04236	1533.36517	-300.75153	1207.55447	4.10897
200	40.333	-521.61854	1259.69307	-87.93022	-511.02486	1267.75284	-319.5393	-236.21885	1218.17429	-372.03957	-250.85146	1214.73778	-19.88028	-370.70301	1601.87286	-194.97864	-207.70301	1655.87286	-172.97864	-467.89742	1789.46533	-212.43832	-273.51728	1772.55661	-267.75667	-325.11883	1778.43979	-120.5985	-254.57146	1521.96808	-448.67268	-211.02118	1226.19919	-483.1181	-305.96424	1172.24243	-470.89401	-292.51955	1245.15388	-518.27045	-247.41989	921.15631	-578.49842	-288.90898	923.9859	-603.3416	-326.64829	924.25507	-573.52032	-265.43703	1526.07956	47.46221	-294.35646	1223.50288	93.9167	-221.75047	1208.46321	46.46844	-255.889	900.89622	106.94061	-293.01088	900.43556	136.23303	-328.49445	902.69112	96.633	-412.30198	1058.49319	-451.10798	-361.59519	1039.32404	41.87612	-414.62818	562.60582	-266.13096	-309.17938	580.03082	-334.69547	-357.61177	565.38307	-172.27968	-378.05916	540.33314	-109.59239	-254.18346	556.08349	-42.88794	-245.57909	548.28136	-192.53494	-291.62115	140.54216	-275.08295	-295.73769	155.49988	-195.40003	-213.89805	140.92017	-217.42207	-332.0525	193.51261	-121.92378	-261.1146	185.92924	-75.77254	-266.38338	194.18297	-164.75607	-470.77679	1037.38998	1744.15543	-433.48331	1061.96907	1460.52811	-277.999	1139.27971	1750.66376	-421.36143	1567.16995	1636.01395	-283.60895	1594.34204	1655.4538	-468.86841	1771.38672	1642.65762	-300.90147	1736.58951	1575.21317	-319.10305	1730.29541	1726.27304	-312.52024	1570.58929	1497.78793	-263.64063	1446.37299	1224.49089	-338.5677	1459.84741	1213.7719	-250.93479	1531.54892	1220.58266	-214.74297	1468.46313	975.24887	-242.63533	1516.36047	963.12851	-286.55251	1484.41788	967.5943	-349.59484	1582.04849	1761.4801	-541.49998	1719.30145	1808.42773	-461.82533	1742.25815	1865.16632	-533.06633	1712.9718	1887.14951	-622.55398	1967.22549	1867.16187	-581.84589	1975.96786	1852.96814	-582.95864	1961.86569	1803.91632	-339.69387	1007.51266	1407.81769	-326.69315	1010.2903	1808.42072	-373.95996	455.92598	1449.69345	-274.6645	492.50793	1422.9985	-282.06024	459.8497	1543.07846	-355.30293	448.3075	1769.77554	-242.80008	486.41197	1787.62619	-313.048	444.14711	1678.85284	-324.04076	131.50282	1417.3027	-295.21275	127.96813	1482.54776	-243.72009	129.0748	1418.04489	-323.20385	135.39938	1792.69135	-250.63116	125.05288	1807.40402	-293.36988	124.41854	1733.69308	-251.26343	1153.9579	1534.05304	-300.40775	1203.80241	-2.31349
201	40.35	-521.61144	1260.04364	-88.63697	-510.35336	1268.03947	-320.33211	-234.74413	1217.01958	-372.35634	-248.61948	1214.92752	-21.05757	-369.96078	1601.80939	-195.27887	-206.96078	1655.80939	-173.27887	-467.09511	1789.71436	-212.43488	-272.40124	1772.23999	-267.66064	-324.35474	1778.6554	-120.55433	-253.57857	1519.69025	-446.65024	-212.95692	1222.04483	-475.96119	-308.4486	1167.60178	-462.81315	-295.55927	1239.46693	-509.81537	-251.32317	913.33839	-557.60597	-292.61404	915.32143	-583.11127	-330.55035	917.18681	-553.41076	-267.64545	1526.16074	48.38542	-293.44858	1219.90234	89.60245	-219.87204	1207.08694	42.91154	-257.43746	897.4263	93.372	-296.06846	895.67162	121.1211	-331.05934	900.19157	79.77439	-411.93375	1058.17757	-451.82087	-361.80771	1040.10468	41.83671	-414.84898	562.6358	-266.29194	-309.3457	580.00431	-334.74384	-358.07087	565.40863	-172.36908	-378.30257	540.36224	-109.61873	-254.45705	556.13533	-42.92153	-245.84906	548.28545	-192.50315	-291.62739	140.52647	-275.06929	-295.77877	155.48861	-195.39003	-214.01558	140.91303	-217.32346	-332.13406	193.47311	-121.94374	-261.35855	185.92083	-75.73567	-266.54613	194.15899	-164.74764	-471.2077	1037.66243	1744.12582	-433.23956	1061.754	1460.59448	-278.25453	1139.4294	1751.26999	-421.0239	1567.32376	1634.43512	-283.34892	1594.37683	1654.72839	-468.2856	1771.61407	1640.72495	-300.09823	1736.52298	1573.54004	-318.81361	1730.50064	1724.67178	-311.89693	1570.16647	1496.80695	-262.57839	1445.0087	1224.03557	-337.47562	1458.40317	1213.18222	-249.96849	1530.18921	1219.79713	-213.65376	1466.37543	974.58603	-241.58484	1514.33609	962.36504	-285.63114	1482.36084	966.88385	-349.85348	1582.29126	1760.33722	-541.85089	1719.7995	1806.16837	-462.52911	1743.00354	1863.14926	-533.54874	1713.58673	1884.76425	-622.75421	1967.98431	1864.13391	-582.08973	1976.69617	1849.93149	-582.97283	1962.41074	1800.99518	-339.18701	1007.39525	1408.47794	-327.13089	1010.34721	1808.86139	-373.7957	455.94162	1449.83627	-274.49314	492.47379	1423.18863	-282.04117	459.69368	1543.38089	-355.68092	448.33092	1769.87732	-243.01193	486.47816	1787.90451	-313.19178	444.27559	1679.06952	-324.03473	131.46004	1417.25708	-295.22192	127.93518	1482.54593	-243.70279	129.04382	1418.09937	-323.20522	135.43131	1792.79922	-250.73023	125.07489	1807.51678	-293.39764	124.47179	1733.72513	-251.11359	1153.84285	1534.57001	-299.01592	1201.31927	-6.24058
